<mxfile host="65bd71144e">
    <diagram id="5txrP_VCDNhUmv-U8DSG" name="Page-1">
        <mxGraphModel dx="1074" dy="762" grid="1" gridSize="10" guides="1" tooltips="1" connect="1" arrows="1" fold="1" page="0" pageScale="1" pageWidth="850" pageHeight="1100" math="0" shadow="0">
            <root>
                <mxCell id="0"/>
                <mxCell id="1" parent="0"/>
                <mxCell id="ActPOonhRAULLwWbESmy-9" value="" style="edgeStyle=orthogonalEdgeStyle;rounded=0;orthogonalLoop=1;jettySize=auto;html=1;entryX=1;entryY=0.5;entryDx=0;entryDy=0;exitX=0;exitY=0.5;exitDx=0;exitDy=0;" parent="1" source="ActPOonhRAULLwWbESmy-4" target="ActPOonhRAULLwWbESmy-62" edge="1">
                    <mxGeometry relative="1" as="geometry">
                        <mxPoint x="320" y="420" as="sourcePoint"/>
                        <mxPoint x="280" y="420" as="targetPoint"/>
                    </mxGeometry>
                </mxCell>
                <mxCell id="ActPOonhRAULLwWbESmy-10" style="edgeStyle=orthogonalEdgeStyle;rounded=0;orthogonalLoop=1;jettySize=auto;html=1;exitX=0;exitY=0.25;exitDx=0;exitDy=0;entryX=1;entryY=0.5;entryDx=0;entryDy=0;" parent="1" source="ActPOonhRAULLwWbESmy-4" target="ActPOonhRAULLwWbESmy-61" edge="1">
                    <mxGeometry relative="1" as="geometry">
                        <mxPoint x="280" y="260" as="targetPoint"/>
                    </mxGeometry>
                </mxCell>
                <mxCell id="ActPOonhRAULLwWbESmy-11" style="edgeStyle=orthogonalEdgeStyle;rounded=0;orthogonalLoop=1;jettySize=auto;html=1;exitX=0;exitY=0.75;exitDx=0;exitDy=0;entryX=1;entryY=0.5;entryDx=0;entryDy=0;" parent="1" source="ActPOonhRAULLwWbESmy-4" target="ActPOonhRAULLwWbESmy-63" edge="1">
                    <mxGeometry relative="1" as="geometry">
                        <mxPoint x="280" y="580.0000000000002" as="targetPoint"/>
                    </mxGeometry>
                </mxCell>
                <mxCell id="ActPOonhRAULLwWbESmy-4" value="Builder" style="rounded=1;whiteSpace=wrap;html=1;" parent="1" vertex="1">
                    <mxGeometry x="360" y="360" width="80" height="120" as="geometry"/>
                </mxCell>
                <mxCell id="ActPOonhRAULLwWbESmy-7" value="" style="edgeStyle=orthogonalEdgeStyle;rounded=0;orthogonalLoop=1;jettySize=auto;html=1;" parent="1" source="ActPOonhRAULLwWbESmy-5" target="ActPOonhRAULLwWbESmy-4" edge="1">
                    <mxGeometry relative="1" as="geometry"/>
                </mxCell>
                <mxCell id="ActPOonhRAULLwWbESmy-5" value="Builder ABC" style="rounded=1;whiteSpace=wrap;html=1;" parent="1" vertex="1">
                    <mxGeometry x="360" y="210" width="80" height="120" as="geometry"/>
                </mxCell>
                <mxCell id="ActPOonhRAULLwWbESmy-8" value="" style="edgeStyle=orthogonalEdgeStyle;rounded=0;orthogonalLoop=1;jettySize=auto;html=1;" parent="1" source="ActPOonhRAULLwWbESmy-6" target="ActPOonhRAULLwWbESmy-4" edge="1">
                    <mxGeometry relative="1" as="geometry"/>
                </mxCell>
                <mxCell id="ActPOonhRAULLwWbESmy-6" value="Product" style="rounded=1;whiteSpace=wrap;html=1;" parent="1" vertex="1">
                    <mxGeometry x="520" y="360" width="80" height="120" as="geometry"/>
                </mxCell>
                <mxCell id="ActPOonhRAULLwWbESmy-16" value="" style="edgeStyle=orthogonalEdgeStyle;rounded=0;orthogonalLoop=1;jettySize=auto;html=1;entryX=1;entryY=0.5;entryDx=0;entryDy=0;exitX=0;exitY=0.5;exitDx=0;exitDy=0;" parent="1" source="ActPOonhRAULLwWbESmy-19" target="ActPOonhRAULLwWbESmy-65" edge="1">
                    <mxGeometry relative="1" as="geometry">
                        <mxPoint x="840" y="580" as="targetPoint"/>
                    </mxGeometry>
                </mxCell>
                <mxCell id="ActPOonhRAULLwWbESmy-69" style="edgeStyle=orthogonalEdgeStyle;rounded=0;orthogonalLoop=1;jettySize=auto;html=1;exitX=0.5;exitY=1;exitDx=0;exitDy=0;entryX=0.5;entryY=0;entryDx=0;entryDy=0;" parent="1" source="ActPOonhRAULLwWbESmy-19" target="ActPOonhRAULLwWbESmy-24" edge="1">
                    <mxGeometry relative="1" as="geometry"/>
                </mxCell>
                <mxCell id="ActPOonhRAULLwWbESmy-19" value="Builder 2" style="rounded=1;whiteSpace=wrap;html=1;" parent="1" vertex="1">
                    <mxGeometry x="920" y="520" width="80" height="120" as="geometry"/>
                </mxCell>
                <mxCell id="ActPOonhRAULLwWbESmy-20" value="" style="edgeStyle=orthogonalEdgeStyle;rounded=0;orthogonalLoop=1;jettySize=auto;html=1;entryX=0.5;entryY=0;entryDx=0;entryDy=0;" parent="1" source="ActPOonhRAULLwWbESmy-21" target="ActPOonhRAULLwWbESmy-25" edge="1">
                    <mxGeometry relative="1" as="geometry"/>
                </mxCell>
                <mxCell id="ActPOonhRAULLwWbESmy-21" value="Builder ABC" style="rounded=1;whiteSpace=wrap;html=1;" parent="1" vertex="1">
                    <mxGeometry x="920" y="200" width="80" height="120" as="geometry"/>
                </mxCell>
                <mxCell id="ActPOonhRAULLwWbESmy-22" value="" style="edgeStyle=orthogonalEdgeStyle;rounded=0;orthogonalLoop=1;jettySize=auto;html=1;" parent="1" source="ActPOonhRAULLwWbESmy-23" target="ActPOonhRAULLwWbESmy-19" edge="1">
                    <mxGeometry relative="1" as="geometry"/>
                </mxCell>
                <mxCell id="ActPOonhRAULLwWbESmy-70" style="edgeStyle=orthogonalEdgeStyle;rounded=0;orthogonalLoop=1;jettySize=auto;html=1;exitX=0;exitY=0.25;exitDx=0;exitDy=0;entryX=1;entryY=0.5;entryDx=0;entryDy=0;" parent="1" source="ActPOonhRAULLwWbESmy-23" target="ActPOonhRAULLwWbESmy-25" edge="1">
                    <mxGeometry relative="1" as="geometry"/>
                </mxCell>
                <mxCell id="ActPOonhRAULLwWbESmy-71" style="edgeStyle=orthogonalEdgeStyle;rounded=0;orthogonalLoop=1;jettySize=auto;html=1;exitX=0;exitY=0.75;exitDx=0;exitDy=0;entryX=1;entryY=0.5;entryDx=0;entryDy=0;" parent="1" source="ActPOonhRAULLwWbESmy-23" target="ActPOonhRAULLwWbESmy-24" edge="1">
                    <mxGeometry relative="1" as="geometry"/>
                </mxCell>
                <mxCell id="ActPOonhRAULLwWbESmy-23" value="Product" style="rounded=1;whiteSpace=wrap;html=1;" parent="1" vertex="1">
                    <mxGeometry x="1080" y="520" width="80" height="120" as="geometry"/>
                </mxCell>
                <mxCell id="ActPOonhRAULLwWbESmy-28" style="edgeStyle=orthogonalEdgeStyle;rounded=0;orthogonalLoop=1;jettySize=auto;html=1;exitX=0;exitY=0.5;exitDx=0;exitDy=0;entryX=1;entryY=0.5;entryDx=0;entryDy=0;" parent="1" source="ActPOonhRAULLwWbESmy-24" target="ActPOonhRAULLwWbESmy-65" edge="1">
                    <mxGeometry relative="1" as="geometry">
                        <mxPoint x="840" y="610" as="targetPoint"/>
                    </mxGeometry>
                </mxCell>
                <mxCell id="ActPOonhRAULLwWbESmy-24" value="Builder 3" style="rounded=1;whiteSpace=wrap;html=1;" parent="1" vertex="1">
                    <mxGeometry x="920" y="680" width="80" height="120" as="geometry"/>
                </mxCell>
                <mxCell id="ActPOonhRAULLwWbESmy-27" style="edgeStyle=orthogonalEdgeStyle;rounded=0;orthogonalLoop=1;jettySize=auto;html=1;exitX=0;exitY=0.5;exitDx=0;exitDy=0;entryX=1;entryY=0.5;entryDx=0;entryDy=0;" parent="1" source="ActPOonhRAULLwWbESmy-25" target="ActPOonhRAULLwWbESmy-65" edge="1">
                    <mxGeometry relative="1" as="geometry">
                        <mxPoint x="840" y="550" as="targetPoint"/>
                    </mxGeometry>
                </mxCell>
                <mxCell id="ActPOonhRAULLwWbESmy-68" style="edgeStyle=orthogonalEdgeStyle;rounded=0;orthogonalLoop=1;jettySize=auto;html=1;exitX=0.5;exitY=1;exitDx=0;exitDy=0;entryX=0.5;entryY=0;entryDx=0;entryDy=0;" parent="1" source="ActPOonhRAULLwWbESmy-25" target="ActPOonhRAULLwWbESmy-19" edge="1">
                    <mxGeometry relative="1" as="geometry"/>
                </mxCell>
                <mxCell id="ActPOonhRAULLwWbESmy-25" value="Builder 1" style="rounded=1;whiteSpace=wrap;html=1;" parent="1" vertex="1">
                    <mxGeometry x="920" y="360" width="80" height="120" as="geometry"/>
                </mxCell>
                <mxCell id="ActPOonhRAULLwWbESmy-35" style="edgeStyle=orthogonalEdgeStyle;rounded=0;orthogonalLoop=1;jettySize=auto;html=1;exitX=0.5;exitY=1;exitDx=0;exitDy=0;entryX=0.5;entryY=0;entryDx=0;entryDy=0;" parent="1" source="ActPOonhRAULLwWbESmy-29" target="ActPOonhRAULLwWbESmy-31" edge="1">
                    <mxGeometry relative="1" as="geometry"/>
                </mxCell>
                <mxCell id="ActPOonhRAULLwWbESmy-29" value="Builder ABC" style="rounded=1;whiteSpace=wrap;html=1;" parent="1" vertex="1">
                    <mxGeometry x="360" y="720" width="80" height="120" as="geometry"/>
                </mxCell>
                <mxCell id="ActPOonhRAULLwWbESmy-37" style="edgeStyle=orthogonalEdgeStyle;rounded=0;orthogonalLoop=1;jettySize=auto;html=1;exitX=0;exitY=0.5;exitDx=0;exitDy=0;entryX=1;entryY=0.5;entryDx=0;entryDy=0;" parent="1" source="ActPOonhRAULLwWbESmy-30" target="ActPOonhRAULLwWbESmy-31" edge="1">
                    <mxGeometry relative="1" as="geometry"/>
                </mxCell>
                <mxCell id="ActPOonhRAULLwWbESmy-38" style="edgeStyle=orthogonalEdgeStyle;rounded=0;orthogonalLoop=1;jettySize=auto;html=1;exitX=0;exitY=0.75;exitDx=0;exitDy=0;entryX=1;entryY=0.5;entryDx=0;entryDy=0;" parent="1" source="ActPOonhRAULLwWbESmy-30" target="ActPOonhRAULLwWbESmy-32" edge="1">
                    <mxGeometry relative="1" as="geometry"/>
                </mxCell>
                <mxCell id="ActPOonhRAULLwWbESmy-30" value="Product 1" style="rounded=1;whiteSpace=wrap;html=1;" parent="1" vertex="1">
                    <mxGeometry x="520" y="880" width="80" height="120" as="geometry"/>
                </mxCell>
                <mxCell id="ActPOonhRAULLwWbESmy-36" style="edgeStyle=orthogonalEdgeStyle;rounded=0;orthogonalLoop=1;jettySize=auto;html=1;exitX=0.5;exitY=1;exitDx=0;exitDy=0;entryX=0.5;entryY=0;entryDx=0;entryDy=0;" parent="1" source="ActPOonhRAULLwWbESmy-31" target="ActPOonhRAULLwWbESmy-32" edge="1">
                    <mxGeometry relative="1" as="geometry"/>
                </mxCell>
                <mxCell id="ActPOonhRAULLwWbESmy-45" style="edgeStyle=orthogonalEdgeStyle;rounded=0;orthogonalLoop=1;jettySize=auto;html=1;exitX=0;exitY=0.5;exitDx=0;exitDy=0;entryX=1;entryY=0.5;entryDx=0;entryDy=0;" parent="1" source="ActPOonhRAULLwWbESmy-31" target="ActPOonhRAULLwWbESmy-42" edge="1">
                    <mxGeometry relative="1" as="geometry"/>
                </mxCell>
                <mxCell id="ActPOonhRAULLwWbESmy-31" value="Builder 1" style="rounded=1;whiteSpace=wrap;html=1;" parent="1" vertex="1">
                    <mxGeometry x="360" y="880" width="80" height="120" as="geometry"/>
                </mxCell>
                <mxCell id="ActPOonhRAULLwWbESmy-46" style="edgeStyle=orthogonalEdgeStyle;rounded=0;orthogonalLoop=1;jettySize=auto;html=1;exitX=0;exitY=0.5;exitDx=0;exitDy=0;entryX=1;entryY=0.5;entryDx=0;entryDy=0;" parent="1" source="ActPOonhRAULLwWbESmy-32" target="ActPOonhRAULLwWbESmy-43" edge="1">
                    <mxGeometry relative="1" as="geometry"/>
                </mxCell>
                <mxCell id="ActPOonhRAULLwWbESmy-48" value="" style="edgeStyle=orthogonalEdgeStyle;rounded=0;orthogonalLoop=1;jettySize=auto;html=1;" parent="1" source="ActPOonhRAULLwWbESmy-32" target="ActPOonhRAULLwWbESmy-47" edge="1">
                    <mxGeometry relative="1" as="geometry"/>
                </mxCell>
                <mxCell id="ActPOonhRAULLwWbESmy-32" value="Builder 2" style="rounded=1;whiteSpace=wrap;html=1;" parent="1" vertex="1">
                    <mxGeometry x="360" y="1040" width="80" height="120" as="geometry"/>
                </mxCell>
                <mxCell id="ActPOonhRAULLwWbESmy-41" value="Director" style="swimlane;fontStyle=0;childLayout=stackLayout;horizontal=1;startSize=40;horizontalStack=0;resizeParent=1;resizeParentMax=0;resizeLast=0;collapsible=1;marginBottom=0;" parent="1" vertex="1">
                    <mxGeometry x="120" y="720" width="160" height="160" as="geometry"/>
                </mxCell>
                <mxCell id="ActPOonhRAULLwWbESmy-42" value="Method for Builder 1" style="text;strokeColor=none;fillColor=none;align=left;verticalAlign=middle;spacingLeft=4;spacingRight=4;overflow=hidden;points=[[0,0.5],[1,0.5]];portConstraint=eastwest;rotatable=0;" parent="ActPOonhRAULLwWbESmy-41" vertex="1">
                    <mxGeometry y="40" width="160" height="40" as="geometry"/>
                </mxCell>
                <mxCell id="ActPOonhRAULLwWbESmy-43" value="Method for Builder 2" style="text;strokeColor=none;fillColor=none;align=left;verticalAlign=middle;spacingLeft=4;spacingRight=4;overflow=hidden;points=[[0,0.5],[1,0.5]];portConstraint=eastwest;rotatable=0;" parent="ActPOonhRAULLwWbESmy-41" vertex="1">
                    <mxGeometry y="80" width="160" height="40" as="geometry"/>
                </mxCell>
                <mxCell id="ActPOonhRAULLwWbESmy-44" value="Method for Builder 3" style="text;strokeColor=none;fillColor=none;align=left;verticalAlign=middle;spacingLeft=4;spacingRight=4;overflow=hidden;points=[[0,0.5],[1,0.5]];portConstraint=eastwest;rotatable=0;" parent="ActPOonhRAULLwWbESmy-41" vertex="1">
                    <mxGeometry y="120" width="160" height="40" as="geometry"/>
                </mxCell>
                <mxCell id="ActPOonhRAULLwWbESmy-54" style="edgeStyle=orthogonalEdgeStyle;rounded=0;orthogonalLoop=1;jettySize=auto;html=1;exitX=0;exitY=0.5;exitDx=0;exitDy=0;entryX=1;entryY=0.5;entryDx=0;entryDy=0;" parent="1" source="ActPOonhRAULLwWbESmy-47" target="ActPOonhRAULLwWbESmy-44" edge="1">
                    <mxGeometry relative="1" as="geometry"/>
                </mxCell>
                <mxCell id="ActPOonhRAULLwWbESmy-47" value="Builder 3" style="rounded=1;whiteSpace=wrap;html=1;" parent="1" vertex="1">
                    <mxGeometry x="360" y="1200" width="80" height="120" as="geometry"/>
                </mxCell>
                <mxCell id="ActPOonhRAULLwWbESmy-56" value="" style="edgeStyle=orthogonalEdgeStyle;rounded=0;orthogonalLoop=1;jettySize=auto;html=1;" parent="1" source="ActPOonhRAULLwWbESmy-55" target="ActPOonhRAULLwWbESmy-47" edge="1">
                    <mxGeometry relative="1" as="geometry"/>
                </mxCell>
                <mxCell id="ActPOonhRAULLwWbESmy-55" value="Product 2" style="rounded=1;whiteSpace=wrap;html=1;" parent="1" vertex="1">
                    <mxGeometry x="520" y="1200" width="80" height="120" as="geometry"/>
                </mxCell>
                <mxCell id="ActPOonhRAULLwWbESmy-58" value="" style="edgeStyle=orthogonalEdgeStyle;rounded=0;orthogonalLoop=1;jettySize=auto;html=1;" parent="1" source="ActPOonhRAULLwWbESmy-57" target="ActPOonhRAULLwWbESmy-30" edge="1">
                    <mxGeometry relative="1" as="geometry"/>
                </mxCell>
                <mxCell id="ActPOonhRAULLwWbESmy-59" value="" style="edgeStyle=orthogonalEdgeStyle;rounded=0;orthogonalLoop=1;jettySize=auto;html=1;" parent="1" source="ActPOonhRAULLwWbESmy-57" target="ActPOonhRAULLwWbESmy-55" edge="1">
                    <mxGeometry relative="1" as="geometry"/>
                </mxCell>
                <mxCell id="ActPOonhRAULLwWbESmy-57" value="Product&lt;br&gt;Prototype" style="rounded=1;whiteSpace=wrap;html=1;" parent="1" vertex="1">
                    <mxGeometry x="520" y="1040" width="80" height="120" as="geometry"/>
                </mxCell>
                <mxCell id="ActPOonhRAULLwWbESmy-60" value="Director" style="swimlane;fontStyle=0;childLayout=stackLayout;horizontal=1;startSize=40;horizontalStack=0;resizeParent=1;resizeParentMax=0;resizeLast=0;collapsible=1;marginBottom=0;" parent="1" vertex="1">
                    <mxGeometry x="120" y="200" width="160" height="160" as="geometry"/>
                </mxCell>
                <mxCell id="ActPOonhRAULLwWbESmy-61" value="Method 1 for Builder" style="text;strokeColor=none;fillColor=none;align=left;verticalAlign=middle;spacingLeft=4;spacingRight=4;overflow=hidden;points=[[0,0.5],[1,0.5]];portConstraint=eastwest;rotatable=0;" parent="ActPOonhRAULLwWbESmy-60" vertex="1">
                    <mxGeometry y="40" width="160" height="40" as="geometry"/>
                </mxCell>
                <mxCell id="ActPOonhRAULLwWbESmy-62" value="Method 2 for Builder" style="text;strokeColor=none;fillColor=none;align=left;verticalAlign=middle;spacingLeft=4;spacingRight=4;overflow=hidden;points=[[0,0.5],[1,0.5]];portConstraint=eastwest;rotatable=0;" parent="ActPOonhRAULLwWbESmy-60" vertex="1">
                    <mxGeometry y="80" width="160" height="40" as="geometry"/>
                </mxCell>
                <mxCell id="ActPOonhRAULLwWbESmy-63" value="Method 3 for Builder" style="text;strokeColor=none;fillColor=none;align=left;verticalAlign=middle;spacingLeft=4;spacingRight=4;overflow=hidden;points=[[0,0.5],[1,0.5]];portConstraint=eastwest;rotatable=0;" parent="ActPOonhRAULLwWbESmy-60" vertex="1">
                    <mxGeometry y="120" width="160" height="40" as="geometry"/>
                </mxCell>
                <mxCell id="ActPOonhRAULLwWbESmy-64" value="Director" style="swimlane;fontStyle=0;childLayout=stackLayout;horizontal=1;startSize=40;horizontalStack=0;resizeParent=1;resizeParentMax=0;resizeLast=0;collapsible=1;marginBottom=0;" parent="1" vertex="1">
                    <mxGeometry x="680" y="200" width="160" height="80" as="geometry"/>
                </mxCell>
                <mxCell id="ActPOonhRAULLwWbESmy-65" value="Method 1 for Builder" style="text;strokeColor=none;fillColor=none;align=left;verticalAlign=middle;spacingLeft=4;spacingRight=4;overflow=hidden;points=[[0,0.5],[1,0.5]];portConstraint=eastwest;rotatable=0;" parent="ActPOonhRAULLwWbESmy-64" vertex="1">
                    <mxGeometry y="40" width="160" height="40" as="geometry"/>
                </mxCell>
            </root>
        </mxGraphModel>
    </diagram>
</mxfile>